<svg width="13" height="13" viewBox="0 0 13 13" fill="none" xmlns="http://www.w3.org/2000/svg">
<path d="M11.2738 0H1.03377C0.762184 0 0.501726 0.107885 0.309688 0.299923C0.117651 0.49196 0.00976563 0.752418 0.00976562 1.024V4.608C0.00976562 7.98208 1.64305 10.0269 3.01329 11.1482C4.48913 12.3552 5.95729 12.7654 6.02129 12.7821C6.10929 12.806 6.20209 12.806 6.29009 12.7821C6.35409 12.7654 7.82033 12.3552 9.29809 11.1482C10.6645 10.0269 12.2978 7.98208 12.2978 4.608V1.024C12.2978 0.752418 12.1899 0.49196 11.9978 0.299923C11.8058 0.107885 11.5453 0 11.2738 0ZM6.15377 11.7517C5.24833 11.4354 4.40529 10.963 3.66289 10.3558C2.17489 9.13856 1.31345 7.552 1.09137 5.632H6.15377V1.024H11.2738V4.608C11.274 4.95015 11.2548 5.29203 11.2162 5.632H6.15377V11.7517Z" fill="white"/>
</svg>    
