<svg width="15" height="13" viewBox="0 0 15 13" fill="none" xmlns="http://www.w3.org/2000/svg">
<path d="M14.336 4.22581C14.336 8.70581 7.69344 12.3321 7.41056 12.4818C7.336 12.5219 7.25266 12.5429 7.168 12.5429C7.08334 12.5429 7 12.5219 6.92544 12.4818C6.64256 12.3321 0 8.70581 0 4.22581C0.00118575 3.1738 0.419623 2.16521 1.16351 1.42132C1.9074 0.677435 2.91599 0.258998 3.968 0.257812C5.2896 0.257812 6.44672 0.826132 7.168 1.78677C7.88928 0.826132 9.0464 0.257812 10.368 0.257812C11.42 0.258998 12.4286 0.677435 13.1725 1.42132C13.9164 2.16521 14.3348 3.1738 14.336 4.22581Z" fill="white"/>
</svg>