<svg width="10" height="13" viewBox="0 0 10 13" fill="none" xmlns="http://www.w3.org/2000/svg">
<path d="M5.87386 0.111246C5.81783 0.0618982 5.75142 0.027544 5.68022 0.0110799C5.60903 -0.0053842 5.53514 -0.00347569 5.46479 0.0166445C5.39444 0.0367647 5.32968 0.0745068 5.27599 0.126689C5.22229 0.178871 5.18122 0.243964 5.15625 0.316479L3.90625 3.95229L2.53352 2.54335C2.48742 2.49598 2.43237 2.45951 2.37199 2.43632C2.31162 2.41313 2.24729 2.40376 2.18324 2.40882C2.1192 2.41388 2.05689 2.43326 2.00043 2.46568C1.94397 2.4981 1.89464 2.54283 1.85568 2.59691C0.625 4.30498 0 6.02328 0 7.70366C0 9.10834 0.526784 10.4555 1.46447 11.4487C2.40215 12.442 3.67392 13 5 13C6.32608 13 7.59785 12.442 8.53553 11.4487C9.47322 10.4555 10 9.10834 10 7.70366C10 4.12563 7.1142 1.20362 5.87386 0.111246ZM8.17557 8.2658C8.0577 8.96317 7.74096 9.60555 7.26798 10.1065C6.795 10.6074 6.18849 10.9427 5.53011 11.0674C5.50515 11.072 5.47987 11.0742 5.45455 11.0741C5.34053 11.074 5.23068 11.0286 5.1468 10.9468C5.06292 10.865 5.01112 10.7528 5.00168 10.6324C4.99224 10.5121 5.02585 10.3924 5.09584 10.297C5.16583 10.2017 5.26709 10.1377 5.37955 10.1177C6.32102 9.94979 7.11989 9.10358 7.27955 8.1045C7.29974 7.97856 7.36633 7.86627 7.46468 7.79234C7.56304 7.71841 7.68508 7.6889 7.80398 7.71028C7.92287 7.73167 8.02888 7.80222 8.09867 7.9064C8.16846 8.01058 8.19633 8.13986 8.17614 8.2658H8.17557Z" fill="white"/>
</svg>
