<svg width="13" height="14" viewBox="0 0 13 14" fill="none" xmlns="http://www.w3.org/2000/svg">
<path d="M11.2679 0.800781H1.02791C0.756325 0.800781 0.495866 0.908667 0.303829 1.1007C0.111792 1.29274 0.00390625 1.5532 0.00390625 1.82478V5.40878C0.00390625 8.78286 1.63719 10.8277 3.00743 11.9489C4.48327 13.156 5.95143 13.5662 6.01543 13.5829C6.10343 13.6068 6.19623 13.6068 6.28423 13.5829C6.34823 13.5662 7.81447 13.156 9.29223 11.9489C10.6586 10.8277 12.2919 8.78286 12.2919 5.40878V1.82478C12.2919 1.5532 12.184 1.29274 11.992 1.1007C11.7999 0.908667 11.5395 0.800781 11.2679 0.800781ZM8.89991 6.3963L6.96007 7.17198L8.09351 8.68558C8.13385 8.73937 8.1632 8.80058 8.17989 8.86571C8.19657 8.93085 8.20027 8.99863 8.19076 9.06519C8.18125 9.13175 8.15873 9.19579 8.12447 9.25364C8.09021 9.3115 8.0449 9.36204 7.99111 9.40238C7.93732 9.44272 7.87611 9.47208 7.81097 9.48876C7.74584 9.50545 7.67806 9.50914 7.6115 9.49964C7.54494 9.49013 7.4809 9.4676 7.42305 9.43334C7.36519 9.39909 7.31465 9.35377 7.27431 9.29998L6.14791 7.7979L5.02151 9.29998C4.98116 9.35377 4.93062 9.39909 4.87277 9.43334C4.81491 9.4676 4.75088 9.49013 4.68431 9.49964C4.61775 9.50914 4.54997 9.50545 4.48484 9.48876C4.4197 9.47208 4.3585 9.44272 4.30471 9.40238C4.25092 9.36204 4.2056 9.3115 4.17134 9.25364C4.13709 9.19579 4.11456 9.13175 4.10505 9.06519C4.09554 8.99863 4.09924 8.93085 4.11592 8.86571C4.13261 8.80058 4.16196 8.73937 4.20231 8.68558L5.33767 7.17198L3.39591 6.3963C3.33346 6.37109 3.27659 6.33382 3.22855 6.28663C3.1805 6.23944 3.14223 6.18325 3.1159 6.12126C3.06273 5.99608 3.06146 5.8549 3.11239 5.72878C3.16331 5.60267 3.26224 5.50194 3.38743 5.44877C3.51261 5.3956 3.65379 5.39434 3.77991 5.44526L5.63591 6.1883V4.38478C5.63591 4.24899 5.68985 4.11876 5.78587 4.02274C5.88189 3.92672 6.01212 3.87278 6.14791 3.87278C6.2837 3.87278 6.41393 3.92672 6.50995 4.02274C6.60596 4.11876 6.65991 4.24899 6.65991 4.38478V6.1883L8.51591 5.44526C8.57835 5.42005 8.64515 5.40738 8.7125 5.40798C8.77984 5.40859 8.8464 5.42245 8.90839 5.44877C8.97037 5.4751 9.02656 5.51338 9.07375 5.56142C9.12095 5.60947 9.15821 5.66634 9.18343 5.72878C9.20864 5.79123 9.22131 5.85803 9.22071 5.92537C9.2201 5.99271 9.20624 6.05928 9.17991 6.12126C9.15359 6.18325 9.11531 6.23944 9.06727 6.28663C9.01922 6.33382 8.96235 6.37109 8.89991 6.3963Z" fill="white"/>
</svg>
