<svg width="15" height="11" viewBox="0 0 15 11" fill="none" xmlns="http://www.w3.org/2000/svg">
<path d="M13.1808 3.33584C13.1599 3.30413 13.1321 3.27748 13.0996 3.25783C13.0671 3.23818 13.0306 3.22601 12.9928 3.22221C12.955 3.21841 12.9168 3.22308 12.881 3.23587C12.8453 3.24866 12.8128 3.26925 12.7859 3.29616L7.95906 8.12304C7.86137 8.20986 7.73417 8.25604 7.60354 8.25211C7.4729 8.24818 7.34871 8.19444 7.25641 8.1019C7.16412 8.00936 7.11071 7.88503 7.10713 7.75438C7.10354 7.62373 7.15006 7.49666 7.23714 7.3992L13.1699 1.46704C13.2175 1.41947 13.2552 1.36299 13.281 1.30084C13.3067 1.23869 13.32 1.17207 13.32 1.1048C13.32 1.03752 13.3067 0.970907 13.281 0.908754C13.2552 0.846601 13.2175 0.790127 13.1699 0.742557C13.1224 0.694987 13.0659 0.657253 13.0037 0.631508C12.9416 0.605763 12.875 0.592512 12.8077 0.592512C12.7404 0.592512 12.6738 0.605763 12.6117 0.631508C12.5495 0.657253 12.493 0.694987 12.4455 0.742557L11.5891 1.59952C10.3671 0.645069 8.86853 0.11245 7.31821 0.0815069C5.76789 0.0505638 4.2493 0.522964 2.99011 1.42789C1.73091 2.33281 0.798956 3.6215 0.333951 5.10077C-0.131055 6.58003 -0.104056 8.17017 0.410901 9.6328C0.481453 9.83333 0.612341 10.0071 0.7856 10.1303C0.958859 10.2535 1.166 10.32 1.37858 10.3208H12.9671C13.1794 10.3209 13.3866 10.255 13.5598 10.1322C13.7331 10.0094 13.8639 9.83578 13.9341 9.63536C14.2991 8.59771 14.4209 7.49014 14.2903 6.39796C14.1597 5.30579 13.7801 4.25818 13.1808 3.33584ZM2.6573 8.17104C2.68428 8.30411 2.6573 8.44245 2.58228 8.55563C2.50727 8.66881 2.39037 8.74756 2.2573 8.77456C2.2236 8.7814 2.18929 8.78483 2.1549 8.7848C2.03689 8.78464 1.92255 8.74373 1.83124 8.66897C1.73992 8.59422 1.67723 8.49021 1.65378 8.37456C1.47069 7.47328 1.51095 6.5409 1.77104 5.65876C2.03113 4.77662 2.50315 3.97153 3.14591 3.31375C3.78867 2.65597 4.58264 2.16548 5.45853 1.88508C6.33443 1.60468 7.26564 1.5429 8.1709 1.70512C8.30457 1.72905 8.42326 1.8051 8.50085 1.91654C8.57845 2.02799 8.60859 2.16569 8.58466 2.29936C8.56073 2.43303 8.48467 2.55171 8.37323 2.62931C8.26179 2.7069 8.12409 2.73705 7.99042 2.71312C7.24963 2.58049 6.48764 2.63115 5.77092 2.86066C5.0542 3.09017 4.40452 3.49156 3.87857 4.02983C3.35261 4.5681 2.96634 5.22688 2.75347 5.94872C2.5406 6.67055 2.50758 7.43351 2.6573 8.17104Z" fill="white"/>
</svg>