<svg width="13" height="13" viewBox="0 0 13 13" fill="none" xmlns="http://www.w3.org/2000/svg">
<path d="M12.4971 0.0644531H8.40106C8.32266 0.0644454 8.24529 0.0824459 8.17494 0.117066C8.10459 0.151687 8.04313 0.202003 7.9953 0.264133L3.8993 5.58957L3.28106 4.97261C3.18596 4.87741 3.07303 4.80188 2.94871 4.75034C2.8244 4.69881 2.69115 4.67229 2.55658 4.67229C2.42201 4.67229 2.28876 4.69881 2.16445 4.75034C2.04014 4.80188 1.92721 4.87741 1.8321 4.97261L1.27594 5.52941C1.18083 5.6245 1.10538 5.7374 1.05391 5.86165C1.00243 5.9859 0.975938 6.11908 0.975938 6.25357C0.975938 6.38807 1.00243 6.52124 1.05391 6.6455C1.10538 6.76975 1.18083 6.88264 1.27594 6.97773L2.68394 8.38573L0.635943 10.4337C0.540831 10.5288 0.465383 10.6417 0.413907 10.766C0.362432 10.8902 0.335938 11.0234 0.335938 11.1579C0.335938 11.2924 0.362432 11.4256 0.413907 11.5498C0.465383 11.6741 0.540831 11.787 0.635943 11.8821L1.1921 12.4376C1.38412 12.6295 1.64448 12.7373 1.91594 12.7373C2.18741 12.7373 2.44776 12.6295 2.63978 12.4376L4.68778 10.3896L6.09578 11.7976C6.19089 11.8928 6.30382 11.9683 6.42813 12.0198C6.55244 12.0714 6.68569 12.0979 6.82026 12.0979C6.95483 12.0979 7.08808 12.0714 7.21239 12.0198C7.33671 11.9683 7.44964 11.8928 7.54474 11.7976L8.1009 11.2408C8.19602 11.1457 8.27146 11.0328 8.32294 10.9085C8.37441 10.7843 8.40091 10.6511 8.40091 10.5166C8.40091 10.3821 8.37441 10.2489 8.32294 10.1247C8.27146 10.0004 8.19602 9.88754 8.1009 9.79245L7.48394 9.17549L12.8094 5.07949C12.8717 5.03153 12.9221 4.96987 12.9567 4.89928C12.9914 4.82869 13.0093 4.75108 13.0091 4.67245V0.576453C13.0091 0.440662 12.9551 0.310433 12.8591 0.214415C12.7631 0.118396 12.6329 0.0644531 12.4971 0.0644531ZM11.9851 4.42029L6.7537 8.44461L6.05354 7.74445L9.2753 4.52269C9.37129 4.42662 9.42518 4.29635 9.42512 4.16055C9.42506 4.02474 9.37105 3.89452 9.27498 3.79853C9.17891 3.70255 9.04864 3.64866 8.91284 3.64872C8.77703 3.64878 8.64681 3.70278 8.55082 3.79885L5.32906 7.01997L4.62954 6.31981L8.65322 1.08845H11.9851V4.42029Z" fill="white"/>
</svg>