<svg width="142" height="191" viewBox="0 0 142 191" fill="none" xmlns="http://www.w3.org/2000/svg">
<path d="M43.2104 185.03C13.8304 157.71 27.6404 144.2 40.5904 158.48C37.9704 146.08 50.3604 136.37 52.6304 118.18C35.6904 107.12 49.6104 92.4402 47.5404 67.5802C10.3442 48.3629 -4.12359 27.2267 1 21.6182C5.55712 16.6297 25.613 23.9251 58.9604 55.7802C73.5804 48.0002 88.9804 45.2902 106.36 55.5202C138.02 -43.7098 159.64 9.0502 119.13 67.0902C120.91 69.7602 120.29 79.8302 121.68 87.2002C124.18 100.43 126.69 113.36 115.04 118.84C117.83 136.22 126.13 141.39 125.17 159.33C144.96 141.84 148.28 158.12 124.53 185.69L43.2104 185.03Z" fill="white"/>
<path d="M81.591 185.386C81.5832 185.38 81.582 185.369 81.5883 185.361L89.7436 175.674C90.5933 174.665 90.2503 173.124 89.0528 172.571L79.2223 168.027C77.943 167.436 77.6602 165.742 78.6781 164.767L87.7019 156.125C88.5886 155.276 88.5079 153.836 87.5319 153.091L66.089 136.727C65.0305 135.919 65.0425 134.321 66.1209 133.54C79.6708 123.724 93.7606 115.538 108.527 109.156C109.571 108.705 110.778 109.227 111.154 110.301C113.867 118.03 115.914 126.379 117.48 135.176C117.663 136.199 117.022 137.186 116.016 137.446L96.5483 142.472C94.9238 142.891 94.5065 145.004 95.8495 146.009L104.514 152.496C105.564 153.283 105.585 154.85 104.557 155.665L94.3708 163.731C93.3465 164.542 93.3623 166.102 94.4029 166.892L99.7989 170.989C100.743 171.706 100.86 173.081 100.051 173.947L88.9984 185.775C88.5361 186.27 87.8549 186.497 87.1882 186.379L81.5986 185.389C81.5958 185.389 81.5932 185.388 81.591 185.386Z" fill="black"/>
</svg>
